<svg width="34" height="28" viewBox="0 0 34 28" fill="none" xmlns="http://www.w3.org/2000/svg">
<path d="M33.665 3.50658C32.4402 4.03493 31.1073 4.41517 29.7344 4.56327C31.1598 3.71646 32.2272 2.37865 32.7364 0.800827C31.3988 1.5965 29.9336 2.15444 28.4056 2.4499C27.7669 1.76716 26.9945 1.22326 26.1365 0.85209C25.2785 0.48092 24.3532 0.290432 23.4183 0.292497C19.6359 0.292497 16.5939 3.35849 16.5939 7.12093C16.5939 7.64927 16.6579 8.17761 16.762 8.68594C11.0983 8.38975 6.04707 5.684 2.68889 1.54131C2.07699 2.58645 1.75634 3.77646 1.76028 4.98754C1.76028 7.35708 2.96507 9.44644 4.80226 10.6752C3.71957 10.6326 2.66224 10.335 1.71626 9.80667V9.89072C1.71626 13.2089 4.06178 15.9587 7.18781 16.5911C6.60086 16.7435 5.99706 16.8215 5.39064 16.8232C4.94635 16.8232 4.52608 16.7792 4.1018 16.7192C4.96636 19.4249 7.484 21.3902 10.4819 21.4542C8.13642 23.2914 5.19851 24.3721 2.00845 24.3721C1.43607 24.3721 0.907731 24.3521 0.359375 24.2881C3.38534 26.2293 6.97567 27.3501 10.8422 27.3501C23.3943 27.3501 30.2628 16.9513 30.2628 7.92545C30.2628 7.62926 30.2628 7.33307 30.2428 7.03687C31.5716 6.06424 32.7364 4.85946 33.665 3.50658Z" fill="#EF2779"/>
</svg>
