<?xml version="1.0" encoding="UTF-8"?><!DOCTYPE svg PUBLIC "-//W3C//DTD SVG 1.1//EN" "http://www.w3.org/Graphics/SVG/1.1/DTD/svg11.dtd"><svg xmlns="http://www.w3.org/2000/svg"><defs>
        <clipPath id="a">
            <path transform="translate(0 .315)" d="M0 0h26v32H0z"/>
        </clipPath>
    </defs><symbol id="svg-contact-facebook" viewBox="0 0 42 42">
    <path d="M35.732 4.811H6.273a1.28 1.28 0 0 0-1.28 1.28v29.46c0 .708.572 1.28 1.28 1.28h29.46a1.28 1.28 0 0 0 1.28-1.28V6.091a1.28 1.28 0 0 0-1.28-1.28zm-3.698 9.346h-2.558c-2.005 0-2.393.953-2.393 2.354v3.086h4.787l-.625 4.83h-4.163v12.405h-4.99v-12.4h-4.175v-4.835h4.174v-3.563c0-4.134 2.526-6.388 6.216-6.388 1.77 0 3.286.132 3.73.192v4.32h-.003z"/>
</symbol><symbol id="svg-contact-geo" viewBox="0 0 26 33">
    <g clip-path="url(#a)">
        <path d="M13.001 19.482a6.34 6.34 0 0 0 6.334-6.334A6.34 6.34 0 0 0 13 6.815a6.34 6.34 0 0 0-6.333 6.333 6.34 6.34 0 0 0 6.333 6.334zm0-9.5a3.17 3.17 0 0 1 3.167 3.166 3.17 3.17 0 0 1-3.167 3.167 3.17 3.17 0 0 1-3.166-3.167A3.17 3.17 0 0 1 13 9.982z"/>
        <path d="M11.748 31.854a1.58 1.58 0 0 0 1.837 0c.481-.34 11.794-8.51 11.748-18.706 0-6.984-5.682-12.667-12.666-12.667S0 6.164 0 13.141c-.046 10.204 11.267 18.372 11.748 18.713zm.919-28.206c5.24 0 9.5 4.26 9.5 9.508.033 7.027-6.948 13.336-9.5 15.406-2.55-2.071-9.533-8.382-9.5-15.414 0-5.24 4.26-9.5 9.5-9.5z"/>
    </g>
    
</symbol><symbol id="svg-contact-linkedin" viewBox="0 0 42 42">
    <path d="M35.717 4.811H6.257a1.28 1.28 0 0 0-1.28 1.28v29.46c0 .708.572 1.28 1.28 1.28h29.46a1.28 1.28 0 0 0 1.28-1.28V6.091a1.28 1.28 0 0 0-1.28-1.28zM14.475 32.097H9.724V16.815h4.75v15.282zM12.1 14.725a2.753 2.753 0 1 1 0-5.506 2.753 2.753 0 0 1 0 5.507zm20.161 17.372h-4.747v-7.433c0-1.773-.032-4.05-2.47-4.05-2.469 0-2.85 1.928-2.85 3.922v7.56h-4.742V16.816h4.555v2.09h.064c.632-1.202 2.181-2.47 4.495-2.47 4.81 0 5.695 3.166 5.695 7.28v8.382z"/>
</symbol><symbol id="svg-contact-mail" viewBox="0 0 27 23">
    <path d="M25.313 1.002H.938A.936.936 0 0 0 0 1.94v18.75c0 .518.419.937.938.937h24.375a.936.936 0 0 0 .937-.937V1.94a.936.936 0 0 0-.938-.938zM24.14 4.25v15.27H2.109V4.248l-.808-.63 1.151-1.48 1.254.976h18.84l1.255-.976 1.151 1.48-.811.63zm-1.594-1.137l-9.422 7.324-9.422-7.324-1.254-.976-1.151 1.48.808.63 10.008 7.78a1.64 1.64 0 0 0 2.013 0L24.141 4.25l.808-.63-1.151-1.48-1.251.973z"/>
</symbol><symbol id="svg-contact-phone" viewBox="0 0 21 35">
    <path d="M16.042 1.273H4.375A4.37 4.37 0 0 0 0 5.648v23.334a4.37 4.37 0 0 0 4.375 4.375h11.667a4.37 4.37 0 0 0 4.375-4.375V5.648a4.37 4.37 0 0 0-4.375-4.375zM13.125 30.44H7.292v-1.458h5.833v1.458zm4.74-4.375H2.552V5.648h15.313v20.417z"/>
</symbol><symbol id="svg-contact-twitter" viewBox="0 0 34 28">
    <path d="M33.665 3.507a13.688 13.688 0 0 1-3.93 1.056A6.809 6.809 0 0 0 32.735.801a13.475 13.475 0 0 1-4.33 1.649A6.81 6.81 0 0 0 23.418.292a6.823 6.823 0 0 0-6.824 6.829c0 .528.064 1.057.168 1.565A19.396 19.396 0 0 1 2.689 1.54a6.777 6.777 0 0 0-.929 3.447 6.83 6.83 0 0 0 3.042 5.687 6.884 6.884 0 0 1-3.086-.868v.084a6.827 6.827 0 0 0 5.472 6.7c-.587.152-1.19.23-1.797.232-.445 0-.865-.044-1.29-.104a6.837 6.837 0 0 0 6.38 4.735 13.679 13.679 0 0 1-8.473 2.918c-.572 0-1.1-.02-1.649-.084a19.328 19.328 0 0 0 10.483 3.062c12.552 0 19.42-10.399 19.42-19.425 0-.296 0-.592-.02-.888a14.701 14.701 0 0 0 3.423-3.53z"/>
</symbol><symbol id="svg-features-icon" viewBox="0 0 18 18">
    <path d="M5.093 10.239l2.63-2.631L1.97 1.862a.935.935 0 0 0-1.497.25 3.734 3.734 0 0 0 .725 4.24l3.896 3.887zm6.303-1.683c1.423.66 3.422.195 4.9-1.283 1.776-1.776 2.12-4.324.753-5.69-1.357-1.358-3.905-1.023-5.69.753-1.478 1.478-1.943 3.477-1.283 4.9l-8.423 8.423a.927.927 0 1 0 1.31 1.311l5.756-5.736 5.746 5.746a.93.93 0 0 0 1.31 0 .928.928 0 0 0 0-1.312L10.03 9.924l1.366-1.367z"/>
</symbol><symbol id="svg-header-svg" viewBox="0 0 40 32">
    <path d="M6.668 8h26.667v2.667H6.668V8zm6.667 6.667h20v2.666h-20v-2.666zm8.333 6.666h11.667V24H21.668v-2.667z"/>
</symbol></svg>